<svg width="995" height="130" viewBox="0 0 995 130" fill="none" xmlns="http://www.w3.org/2000/svg">
<g clip-path="url(#clip0_496_335)">
<g clip-path="url(#clip1_496_335)">
<g clip-path="url(#clip2_496_335)">
<g clip-path="url(#clip3_496_335)">
<g clip-path="url(#clip4_496_335)">
<g clip-path="url(#clip5_496_335)">
<path d="M25.7942 128.439C18.0497 128.439 11.8908 126.271 7.31747 121.935C2.7657 117.577 0.489807 111.58 0.489807 103.943C0.489807 99.9955 1.21248 96.3281 2.65783 92.9413C4.12476 89.5328 6.65951 86.5235 10.2621 83.9132C13.8647 81.303 18.9234 79.2104 25.4383 77.6357C31.9316 76.0609 40.237 75.1441 50.3544 74.8852C50.3544 70.0961 49.1572 66.6445 46.7626 64.5304C44.3681 62.4163 40.7763 61.3593 35.9872 61.3593C31.6511 61.3593 28.1133 62.1035 25.3736 63.592C22.6339 65.0589 20.9297 66.0513 20.2609 66.569C19.5059 67.2162 18.6106 67.4535 17.5752 67.2809C16.1514 67.0868 14.6305 66.72 13.0126 66.1807C11.4162 65.663 9.69044 65.0589 7.83521 64.3686C7.57634 64.2608 7.2959 64.0882 6.99389 63.8509C6.6703 63.6136 6.47615 63.2577 6.41143 62.7831C6.41143 62.5242 6.44379 62.2006 6.50851 61.8123C6.55165 61.4024 6.68109 60.6798 6.89681 59.6443C7.11254 58.5872 7.42534 57.2821 7.83521 55.7289C8.26666 54.1757 8.66575 52.9784 9.03248 52.1371C9.50707 51.231 10.2945 50.3897 11.3947 49.6131C12.3007 48.8581 15.0188 47.6716 19.549 46.0537C24.0792 44.4142 30.6372 43.5944 39.2231 43.5944C62.8664 43.5944 74.6881 55.1033 74.6881 78.121V122.841C74.6881 123.833 74.4077 124.685 73.8468 125.397C73.3075 126.109 72.3691 126.465 71.0316 126.465H59.1883C58.347 126.465 57.6028 126.346 56.9556 126.109C56.2868 125.872 55.6612 125.408 55.0788 124.717L50.1926 118.408H49.6425C47.2264 121.945 43.969 124.502 39.8702 126.076C35.7931 127.651 31.1011 128.439 25.7942 128.439ZM34.4663 110.124C39.3201 110.124 42.9767 108.883 45.4359 106.402C47.9167 103.922 49.5023 101.365 50.1926 98.7335V89.9643C42.8796 89.9643 37.3894 90.536 33.7221 91.6793C30.0548 92.8011 27.6171 94.268 26.4091 96.0801C25.201 97.9137 24.597 99.8768 24.597 101.969C24.597 105.033 25.5462 107.158 27.4445 108.344C29.3429 109.53 31.6835 110.124 34.4663 110.124ZM168.366 53.8521C170.308 51.4791 173.328 49.1817 177.427 46.9597C181.504 44.7162 187.253 43.5944 194.674 43.5944C205.201 43.5944 212.816 46.3017 217.519 51.7164C222.2 57.1527 224.541 65.2962 224.541 76.1472V122.291C224.541 123.865 224.206 124.955 223.538 125.559C222.891 126.163 221.78 126.465 220.205 126.465H203.928C202.332 126.465 201.21 126.163 200.563 125.559C199.894 124.955 199.56 123.865 199.56 122.291V80.2567C199.56 74.3459 198.481 70.1177 196.324 67.5721C194.167 65.0266 190.931 63.7538 186.617 63.7538C182.777 63.7538 179.735 64.6059 177.491 66.3102C175.248 68.0144 173.652 70.3118 172.702 73.2025V122.291C172.702 123.865 172.379 124.955 171.732 125.559C171.063 126.163 169.941 126.465 168.366 126.465H152.09C150.515 126.465 149.393 126.163 148.725 125.559C148.077 124.955 147.754 123.865 147.754 122.291V80.2567C147.754 74.5185 146.567 70.3334 144.194 67.7016C141.821 65.0697 138.715 63.7538 134.875 63.7538C131.229 63.7538 128.306 64.6491 126.106 66.4396C123.884 68.2301 122.169 70.4844 120.961 73.2025V122.291C120.961 123.865 120.637 124.955 119.99 125.559C119.321 126.163 118.2 126.465 116.625 126.465H100.348C98.7737 126.465 97.6519 126.163 96.9832 125.559C96.336 124.955 96.0124 123.865 96.0124 122.291V56.0848C96.0124 54.8121 96.2713 53.8305 96.789 53.1402C97.8892 51.6733 99.2159 50.174 100.769 48.6424C102.322 47.1107 104.232 45.482 106.497 43.7562C107.187 43.2169 107.845 42.9472 108.47 42.9472C109.053 42.9472 109.722 43.2169 110.477 43.7562C112.677 45.482 114.565 47.1431 116.139 48.7394C117.736 50.3142 119.138 51.9429 120.346 53.6256H120.734C122.525 51.3605 125.319 49.1277 129.115 46.9273C132.89 44.7054 138.316 43.5944 145.392 43.5944C152.122 43.5944 157.116 44.6083 160.374 46.6361C163.653 48.6639 166.317 51.0692 168.366 53.8521ZM282.98 128.439C276.185 128.439 270.468 127.943 265.83 126.95C261.214 125.936 257.32 124.696 254.149 123.229C250.999 121.762 248.238 120.284 245.865 118.796V15.3777C245.865 14.1265 246.124 13.1557 246.642 12.4654C248.864 9.57473 252.11 6.44672 256.382 3.08143C257.115 2.54212 257.773 2.27246 258.356 2.27246C259.024 2.27246 259.682 2.54212 260.329 3.08143C262.595 4.80722 264.504 6.43594 266.057 7.96758C267.61 9.49922 268.937 10.9985 270.037 12.4654C270.555 13.1557 270.814 14.1265 270.814 15.3777V53.6903H271.137C273.251 51.0153 276.174 48.6639 279.906 46.6361C283.638 44.6083 288.848 43.5944 295.536 43.5944C303.021 43.5944 309.191 45.3202 314.045 48.7718C318.877 52.2234 322.48 56.9585 324.853 62.9772C327.225 69.0175 328.412 75.9314 328.412 83.7191C328.412 92.1539 327.021 99.7582 324.238 106.532C321.433 113.284 316.731 118.623 310.129 122.549C303.528 126.476 294.479 128.439 282.98 128.439ZM284.016 109.315C290.121 109.315 294.781 107.276 297.995 103.199C301.209 99.1218 302.816 93.2864 302.816 85.693C302.816 78.0132 301.382 72.4367 298.513 68.9636C295.643 65.4904 291.491 63.7538 286.055 63.7538C281.697 63.7538 278.375 64.6491 276.088 66.4396C273.78 68.2301 272.022 70.4844 270.814 73.2025V105.852C271.979 106.694 273.629 107.481 275.764 108.215C277.9 108.948 280.651 109.315 284.016 109.315ZM385.04 128.439C376.152 128.439 368.418 127.004 361.838 124.135C355.237 121.266 350.125 116.8 346.5 110.739C342.855 104.677 341.032 96.8567 341.032 87.2785C341.032 72.9113 344.721 62.0388 352.098 54.661C359.476 47.2833 369.27 43.5944 381.48 43.5944C389.44 43.5944 396.171 45.0182 401.672 47.8657C407.173 50.7133 411.358 54.6395 414.227 59.6443C417.096 64.6491 418.531 70.355 418.531 76.762C418.531 83.0396 416.934 87.4188 413.742 89.8996C410.527 92.3588 405.835 93.5885 399.666 93.5885H365.786C366.196 99.0247 368.181 103.167 371.74 106.014C375.3 108.862 380.132 110.285 386.237 110.285C391.091 110.285 394.974 109.552 397.886 108.085C400.82 106.64 402.858 105.496 404.002 104.655C405.016 103.922 406.148 103.576 407.399 103.62C408.413 103.62 409.848 103.825 411.703 104.234C413.58 104.623 415.435 105.345 417.269 106.402C418.585 107.093 419.243 108.042 419.243 109.25C419.243 109.94 419.113 110.911 418.854 112.162C418.703 112.896 418.444 113.964 418.078 115.366C417.711 116.768 417.236 118.073 416.654 119.281C416.33 119.864 415.834 120.414 415.165 120.931C414.108 121.665 412.404 122.636 410.053 123.844C407.701 125.073 404.498 126.141 400.442 127.047C396.387 127.975 391.252 128.439 385.04 128.439ZM365.624 77.4092H391.382C394.057 77.4092 395.394 76.1687 395.394 73.6879C395.394 69.9559 394.229 66.8063 391.9 64.2392C389.548 61.6937 386.032 60.4209 381.351 60.4209C376.238 60.4209 372.484 62.0496 370.09 65.307C367.695 68.586 366.207 72.6201 365.624 77.4092ZM460.888 54.7258V60.5827H461.212C465.159 49.6239 472.268 44.1445 482.536 44.1445C483.852 44.1445 484.931 44.2092 485.772 44.3387C486.613 44.4681 487.196 44.5867 487.519 44.6946C488.296 44.9535 488.684 45.5575 488.684 46.5067V65.5659C488.684 67.1838 487.735 67.6261 485.837 66.8926C485.211 66.6337 484.305 66.3641 483.118 66.0836C481.932 65.7816 480.282 65.6306 478.168 65.6306C472.753 65.6306 468.514 67.6153 465.451 71.5846C462.409 75.5755 460.888 80.9902 460.888 87.8286V122.291C460.888 123.865 460.554 124.955 459.885 125.559C459.238 126.163 458.127 126.465 456.552 126.465H440.276C438.679 126.465 437.558 126.163 436.91 125.559C436.242 124.955 435.907 123.865 435.907 122.291V56.0848C435.907 54.8121 436.177 53.8305 436.716 53.1402C437.816 51.6733 439.143 50.174 440.696 48.6424C442.25 47.1107 444.159 45.482 446.424 43.7562C446.855 43.4326 447.276 43.2169 447.686 43.109C448.117 43.0012 448.484 42.9472 448.786 42.9472C449.52 42.9472 450.264 43.2169 451.019 43.7562C455.376 47.1862 458.429 50.1093 460.176 52.5254C460.651 53.151 460.888 53.8844 460.888 54.7258ZM525.411 54.7258V60.5827H525.735C529.683 49.6239 536.791 44.1445 547.059 44.1445C548.375 44.1445 549.454 44.2092 550.295 44.3387C551.136 44.4681 551.719 44.5867 552.042 44.6946C552.841 44.9535 553.24 45.5575 553.24 46.5067V65.5659C553.24 67.1838 552.29 67.6261 550.392 66.8926C549.745 66.6337 548.828 66.3641 547.642 66.0836C546.477 65.7816 544.837 65.6306 542.723 65.6306C537.287 65.6306 533.048 67.6153 530.006 71.5846C526.943 75.5755 525.411 80.9902 525.411 87.8286V122.291C525.411 123.865 525.088 124.955 524.44 125.559C523.772 126.163 522.65 126.465 521.075 126.465H504.799C503.224 126.465 502.102 126.163 501.433 125.559C500.786 124.955 500.463 123.865 500.463 122.291V56.0848C500.463 54.8121 500.722 53.8305 501.239 53.1402C502.34 51.6733 503.666 50.174 505.219 48.6424C506.773 47.1107 508.682 45.482 510.947 43.7562C511.378 43.4326 511.799 43.2169 512.209 43.109C512.64 43.0012 513.018 42.9472 513.341 42.9472C514.075 42.9472 514.808 43.2169 515.542 43.7562C519.921 47.1862 522.974 50.1093 524.699 52.5254C525.174 53.151 525.411 53.8844 525.411 54.7258ZM604.657 128.439C595.748 128.439 588.004 127.004 581.424 124.135C574.844 121.266 569.732 116.8 566.086 110.739C562.462 104.677 560.65 96.8567 560.65 87.2785C560.65 72.9113 564.339 62.0388 571.716 54.661C579.073 47.2833 588.866 43.5944 601.098 43.5944C609.037 43.5944 615.767 45.0182 621.29 47.8657C626.791 50.7133 630.976 54.6395 633.845 59.6443C636.714 64.6491 638.149 70.355 638.149 76.762C638.149 83.0396 636.541 87.4188 633.327 89.8996C630.113 92.3588 625.421 93.5885 619.251 93.5885H585.372C585.803 99.0247 587.788 103.167 591.326 106.014C594.885 108.862 599.717 110.285 605.822 110.285C610.676 110.285 614.559 109.552 617.471 108.085C620.405 106.64 622.455 105.496 623.62 104.655C624.612 103.922 625.745 103.576 627.017 103.62C628.01 103.62 629.444 103.825 631.321 104.234C633.176 104.623 635.031 105.345 636.887 106.402C638.203 107.093 638.86 108.042 638.86 109.25C638.86 109.94 638.731 110.911 638.472 112.162C638.3 112.896 638.03 113.964 637.663 115.366C637.297 116.768 636.822 118.073 636.239 119.281C635.937 119.864 635.441 120.414 634.751 120.931C633.694 121.665 631.99 122.636 629.638 123.844C627.308 125.073 624.116 126.141 620.06 127.047C616.005 127.975 610.87 128.439 604.657 128.439ZM585.21 77.4092H610.967C613.664 77.4092 615.012 76.1687 615.012 73.6879C615.012 69.9559 613.836 66.8063 611.485 64.2392C609.134 61.6937 605.617 60.4209 600.936 60.4209C595.824 60.4209 592.07 62.0496 589.675 65.307C587.281 68.586 585.792 72.6201 585.21 77.4092ZM733.736 76.1472V122.291C733.736 123.865 733.402 124.955 732.733 125.559C732.086 126.163 730.964 126.465 729.367 126.465H713.091C711.516 126.465 710.405 126.163 709.758 125.559C709.089 124.955 708.755 123.865 708.755 122.291V80.2567C708.755 74.5185 707.547 70.3334 705.131 67.7016C702.715 65.0697 699.425 63.7538 695.262 63.7538C691.098 63.7538 687.895 64.6491 685.651 66.4396C683.408 68.2301 681.682 70.4844 680.474 73.2025V122.291C680.474 123.865 680.15 124.955 679.503 125.559C678.834 126.163 677.712 126.465 676.138 126.465H659.861C658.286 126.465 657.165 126.163 656.496 125.559C655.849 124.955 655.525 123.865 655.525 122.291V56.0848C655.525 54.8121 655.784 53.8305 656.302 53.1402C657.402 51.6733 658.729 50.174 660.282 48.6424C661.835 47.1107 663.744 45.482 666.009 43.7562C666.7 43.2169 667.358 42.9472 667.983 42.9472C668.566 42.9472 669.224 43.2169 669.957 43.7562C672.179 45.482 674.077 47.1431 675.652 48.7394C677.249 50.3142 678.651 51.9429 679.859 53.6256H680.247C681.132 52.4607 682.469 51.1016 684.26 49.5484C686.05 47.9952 688.574 46.6145 691.832 45.4065C695.067 44.1984 699.209 43.5944 704.257 43.5944C709.219 43.5944 713.932 44.5975 718.398 46.6038C722.885 48.61 726.563 51.9753 729.432 56.6996C732.301 61.4456 733.736 67.9281 733.736 76.1472ZM787.031 128.439C769.449 128.439 760.658 119.303 760.658 101.031V63.9803H751.727C750.153 63.9803 749.063 63.646 748.459 62.9772C747.855 62.33 747.553 61.2191 747.553 59.6443V49.9043C747.553 48.3296 747.855 47.2186 748.459 46.5714C749.063 45.9027 750.153 45.5683 751.727 45.5683H760.658V32.8513C760.658 31.5786 760.917 30.6078 761.435 29.9391C763.657 27.0268 766.904 23.888 771.175 20.5227C771.908 20.005 772.566 19.7461 773.149 19.7461C773.774 19.7461 774.4 20.005 775.026 20.5227C777.291 22.2701 779.2 23.8988 780.753 25.4089C782.306 26.9405 783.644 28.4506 784.766 29.9391C785.283 30.6078 785.542 31.5786 785.542 32.8513V45.5683H799.521C801.096 45.5683 802.185 45.9027 802.789 46.5714C803.415 47.2186 803.728 48.3296 803.728 49.9043V59.6443C803.728 61.2191 803.415 62.33 802.789 62.9772C802.185 63.646 801.096 63.9803 799.521 63.9803H785.542V96.6949C785.542 105.108 788.595 109.315 794.7 109.315C795.649 109.315 796.522 109.228 797.321 109.056C798.097 108.862 798.777 108.657 799.359 108.441C800.481 108.031 801.258 107.88 801.689 107.988C802.142 108.096 802.552 108.668 802.919 109.703L807.514 121.967C807.988 123.283 807.665 124.232 806.543 124.815C805.766 125.181 803.857 125.872 800.815 126.885C797.795 127.921 793.2 128.439 787.031 128.439Z" fill="#FF908B"/>
</g>
<g clip-path="url(#clip6_496_335)">
<path d="M961.088 72.835C958.88 72.8359 956.763 73.7133 955.202 75.2745C953.641 76.8357 952.763 78.9528 952.762 81.1607V113.084H879.724V81.1607C879.724 78.9526 878.847 76.8349 877.285 75.2735C875.724 73.7121 873.606 72.835 871.398 72.835C869.19 72.835 867.072 73.7121 865.511 75.2735C863.95 76.8349 863.073 78.9526 863.073 81.1607V121.411C863.073 123.619 863.951 125.736 865.512 127.298C867.073 128.859 869.19 129.736 871.398 129.737H961.09C963.297 129.736 965.415 128.859 966.976 127.298C968.537 125.736 969.414 123.619 969.415 121.411V81.1607C969.414 78.9525 968.537 76.8351 966.975 75.2739C965.414 73.7127 963.296 72.8354 961.088 72.835Z" fill="#FF908B"/>
<path d="M990.84 52.3519L921.08 2.52427C919.668 1.51638 917.976 0.974609 916.241 0.974609C914.506 0.974609 912.815 1.51638 911.403 2.52427L841.644 52.3519C840.754 52.9873 839.998 53.7918 839.42 54.7193C838.841 55.6469 838.45 56.6794 838.27 57.7578C838.091 58.8363 838.125 59.9396 838.371 61.0048C838.618 62.07 839.072 63.0761 839.707 63.9659C840.343 64.8556 841.147 65.6115 842.075 66.1904C843.002 66.7692 844.035 67.1597 845.113 67.3395C846.192 67.5193 847.295 67.485 848.36 67.2384C849.426 66.9918 850.432 66.5378 851.321 65.9024L916.242 19.5314L981.163 65.9024C982.572 66.9118 984.262 67.4543 985.996 67.4537C987.76 67.4553 989.48 66.896 990.906 65.8567C992.333 64.8174 993.392 63.3517 993.931 61.6713C994.47 59.9909 994.461 58.1827 993.906 56.5076C993.35 54.8325 992.277 53.3773 990.84 52.3519Z" fill="#FF908B"/>
</g>
</g>
</g>
</g>
</g>
</g>
<defs>
<clipPath id="clip0_496_335">
<rect width="993.871" height="128.762" fill="white" transform="translate(0.458557 0.974609)"/>
</clipPath>
<clipPath id="clip1_496_335">
<rect width="993.871" height="128.762" fill="white" transform="translate(0.458557 0.974609)"/>
</clipPath>
<clipPath id="clip2_496_335">
<rect width="993.871" height="128.762" fill="white" transform="translate(0.458557 0.974609)"/>
</clipPath>
<clipPath id="clip3_496_335">
<rect width="993.871" height="128.762" fill="white" transform="translate(0.458557 0.974609)"/>
</clipPath>
<clipPath id="clip4_496_335">
<rect width="993.871" height="128.762" fill="white" transform="translate(0.458557 0.974609)"/>
</clipPath>
<clipPath id="clip5_496_335">
<rect width="807.298" height="126.166" fill="white" transform="translate(0.458557 2.27246)"/>
</clipPath>
<clipPath id="clip6_496_335">
<rect width="156.173" height="128.762" fill="white" transform="translate(838.156 0.974609)"/>
</clipPath>
</defs>
</svg>
