<svg width="291" height="38" viewBox="0 0 291 38" fill="none" xmlns="http://www.w3.org/2000/svg">
<g clip-path="url(#clip0_496_298)">
<g clip-path="url(#clip1_496_298)">
<g clip-path="url(#clip2_496_298)">
<g clip-path="url(#clip3_496_298)">
<g clip-path="url(#clip4_496_298)">
<g clip-path="url(#clip5_496_298)">
<g clip-path="url(#clip6_496_298)">
<g clip-path="url(#clip7_496_298)">
<path d="M8.26447 37.3456C6.01082 37.3456 4.21858 36.7151 2.88773 35.4541C1.56316 34.1869 0.900879 32.4428 0.900879 30.2219C0.900879 29.0739 1.11118 28.0073 1.53177 27.0224C1.95865 26.0312 2.69626 25.156 3.74462 24.3969C4.79297 23.6378 6.26506 23.0292 8.16089 22.5713C10.0504 22.1133 12.4673 21.8467 15.4115 21.7714C15.4115 20.3786 15.0631 19.3749 14.3663 18.7601C13.6695 18.1452 12.6242 17.8378 11.2306 17.8378C9.96883 17.8378 8.93931 18.0543 8.14206 18.4871C7.34481 18.9138 6.84888 19.2023 6.65427 19.3529C6.43456 19.5411 6.17404 19.6101 5.87271 19.5599C5.4584 19.5035 5.01583 19.3968 4.54501 19.24C4.08047 19.0894 3.57826 18.9138 3.03839 18.713C2.96306 18.6816 2.88145 18.6314 2.79357 18.5624C2.6994 18.4934 2.6429 18.3899 2.62407 18.2519C2.62407 18.1766 2.63349 18.0825 2.65232 17.9696C2.66488 17.8504 2.70254 17.6402 2.76532 17.3391C2.82809 17.0317 2.91912 16.6521 3.03839 16.2004C3.16394 15.7487 3.28008 15.4005 3.3868 15.1559C3.5249 14.8924 3.75404 14.6477 4.07419 14.4219C4.33785 14.2023 5.12882 13.8572 6.44711 13.3867C7.7654 12.9099 9.67378 12.6715 12.1723 12.6715C19.0525 12.6715 22.4926 16.0185 22.4926 22.7124V35.7176C22.4926 36.0062 22.411 36.254 22.2478 36.461C22.0908 36.6681 21.8177 36.7716 21.4285 36.7716H17.9821C17.7373 36.7716 17.5207 36.7371 17.3324 36.6681C17.1378 36.5991 16.9558 36.4642 16.7863 36.2634L15.3644 34.4284H15.2043C14.5012 35.4573 13.5533 36.2007 12.3606 36.6587C11.1741 37.1166 9.80875 37.3456 8.26447 37.3456ZM10.7881 32.0193C12.2005 32.0193 13.2646 31.6586 13.9802 30.9371C14.7021 30.2157 15.1635 29.4722 15.3644 28.7069V26.1566C13.2363 26.1566 11.6387 26.3229 10.5715 26.6554C9.50429 26.9816 8.79492 27.4082 8.44338 27.9352C8.09184 28.4685 7.91606 29.0394 7.91606 29.6479C7.91606 30.5388 8.19228 31.1567 8.7447 31.5018C9.29713 31.8468 9.97825 32.0193 10.7881 32.0193ZM49.7529 15.6546C50.3179 14.9645 51.1968 14.2964 52.3895 13.6502C53.576 12.9977 55.2489 12.6715 57.4084 12.6715C60.4719 12.6715 62.6879 13.4589 64.0564 15.0335C65.4186 16.6145 66.0997 18.9828 66.0997 22.1384V35.5576C66.0997 36.0156 66.0024 36.3324 65.8078 36.5081C65.6195 36.6838 65.2962 36.7716 64.8379 36.7716H60.1015C59.637 36.7716 59.3105 36.6838 59.1222 36.5081C58.9276 36.3324 58.8303 36.0156 58.8303 35.5576V23.3335C58.8303 21.6145 58.5164 20.3849 57.8887 19.6446C57.2609 18.9043 56.3193 18.5342 55.0638 18.5342C53.9464 18.5342 53.0612 18.782 52.4084 19.2776C51.7555 19.7732 51.2909 20.4414 51.0147 21.282V35.5576C51.0147 36.0156 50.9206 36.3324 50.7322 36.5081C50.5376 36.6838 50.2112 36.7716 49.7529 36.7716H45.0165C44.5582 36.7716 44.2318 36.6838 44.0372 36.5081C43.8489 36.3324 43.7547 36.0156 43.7547 35.5576V23.3335C43.7547 21.6647 43.4095 20.4477 42.7189 19.6823C42.0284 18.9169 41.1244 18.5342 40.007 18.5342C38.9461 18.5342 38.0955 18.7946 37.4552 19.3153C36.8086 19.836 36.3095 20.4916 35.958 21.282V35.5576C35.958 36.0156 35.8638 36.3324 35.6755 36.5081C35.4809 36.6838 35.1544 36.7716 34.6962 36.7716H29.9598C29.5015 36.7716 29.1751 36.6838 28.9805 36.5081C28.7921 36.3324 28.698 36.0156 28.698 35.5576V16.3039C28.698 15.9338 28.7733 15.6483 28.924 15.4476C29.2441 15.021 29.6302 14.585 30.0822 14.1395C30.5342 13.6941 31.0897 13.2205 31.7489 12.7186C31.9497 12.5617 32.1412 12.4833 32.3233 12.4833C32.4928 12.4833 32.6874 12.5617 32.9071 12.7186C33.5474 13.2205 34.0967 13.7035 34.5549 14.1678C35.0195 14.6257 35.4275 15.0994 35.7791 15.5887H35.8921C36.4131 14.93 37.226 14.2807 38.3309 13.6408C39.4295 12.9946 41.0083 12.6715 43.0673 12.6715C45.0259 12.6715 46.4792 12.9664 47.4271 13.5561C48.3813 14.1458 49.1566 14.8453 49.7529 15.6546ZM83.1057 37.3456C81.1282 37.3456 79.4647 37.2013 78.115 36.9127C76.7716 36.6179 75.6385 36.2571 74.7157 35.8305C73.7992 35.4039 72.9956 34.9742 72.3051 34.5413V4.46563C72.3051 4.10177 72.3804 3.81946 72.5311 3.6187C73.1777 2.77804 74.1225 1.86836 75.3654 0.889679C75.5789 0.732839 75.7703 0.654419 75.9398 0.654419C76.1344 0.654419 76.3259 0.732839 76.5142 0.889679C77.1734 1.39157 77.7289 1.86523 78.1809 2.31065C78.6329 2.75608 79.019 3.19209 79.3391 3.6187C79.4898 3.81946 79.5651 4.10177 79.5651 4.46563V15.6076H79.6593C80.2745 14.8296 81.1251 14.1458 82.2111 13.5561C83.2971 12.9664 84.8132 12.6715 86.7592 12.6715C88.9375 12.6715 90.7329 13.1734 92.1454 14.1772C93.5516 15.181 94.5999 16.558 95.2904 18.3084C95.981 20.065 96.3262 22.0757 96.3262 24.3404C96.3262 26.7934 95.9213 29.0049 95.1115 30.9748C94.2954 32.9384 92.9269 34.4911 91.006 35.6329C89.0851 36.7747 86.4516 37.3456 83.1057 37.3456ZM83.407 31.7841C85.1836 31.7841 86.5395 31.1912 87.4749 30.0055C88.4102 28.8198 88.8779 27.1228 88.8779 24.9145C88.8779 22.6811 88.4604 21.0593 87.6255 20.0493C86.7906 19.0392 85.5822 18.5342 84.0002 18.5342C82.7322 18.5342 81.7654 18.7946 81.1 19.3153C80.4283 19.836 79.9167 20.4916 79.5651 21.282V30.7771C79.9041 31.0218 80.3843 31.2508 81.0058 31.4641C81.6273 31.6774 82.4277 31.7841 83.407 31.7841ZM112.805 37.3456C110.219 37.3456 107.968 36.9284 106.053 36.094C104.132 35.2596 102.645 33.961 101.59 32.1981C100.529 30.4352 99.9986 28.1611 99.9986 25.3756C99.9986 21.1973 101.072 18.0354 103.219 15.8899C105.366 13.7443 108.216 12.6715 111.769 12.6715C114.085 12.6715 116.044 13.0856 117.645 13.9137C119.246 14.7418 120.463 15.8836 121.298 17.3391C122.133 18.7946 122.551 20.4539 122.551 22.3172C122.551 24.1428 122.086 25.4164 121.157 26.1378C120.222 26.853 118.856 27.2106 117.061 27.2106H107.202C107.321 28.7916 107.899 29.9961 108.935 30.8242C109.971 31.6523 111.377 32.0664 113.153 32.0664C114.566 32.0664 115.696 31.8531 116.543 31.4265C117.397 31.0061 117.99 30.6736 118.323 30.429C118.618 30.2157 118.947 30.1153 119.312 30.1278C119.607 30.1278 120.024 30.1874 120.564 30.3066C121.11 30.4196 121.65 30.6297 122.184 30.9371C122.566 31.1379 122.758 31.4139 122.758 31.7652C122.758 31.966 122.72 32.2483 122.645 32.6122C122.601 32.8255 122.526 33.136 122.419 33.5438C122.312 33.9516 122.174 34.3311 122.005 34.6825C121.91 34.8519 121.766 35.0118 121.571 35.1624C121.264 35.3757 120.768 35.658 120.084 36.0093C119.399 36.3669 118.467 36.6775 117.287 36.941C116.107 37.2107 114.613 37.3456 112.805 37.3456ZM107.155 22.5054H114.65C115.429 22.5054 115.818 22.1447 115.818 21.4232C115.818 20.3379 115.479 19.4219 114.801 18.6754C114.117 17.9351 113.094 17.5649 111.731 17.5649C110.244 17.5649 109.151 18.0386 108.455 18.9859C107.758 19.9395 107.325 21.1127 107.155 22.5054ZM134.877 15.9087V17.612H134.971C136.12 14.425 138.188 12.8315 141.176 12.8315C141.559 12.8315 141.873 12.8503 142.118 12.888C142.363 12.9256 142.532 12.9601 142.626 12.9915C142.852 13.0668 142.965 13.2424 142.965 13.5185V19.0612C142.965 19.5317 142.689 19.6603 142.137 19.447C141.955 19.3717 141.691 19.2933 141.346 19.2118C141.001 19.1239 140.52 19.08 139.905 19.08C138.329 19.08 137.096 19.6572 136.205 20.8115C135.319 21.9721 134.877 23.5468 134.877 25.5355V35.5576C134.877 36.0156 134.78 36.3324 134.585 36.5081C134.397 36.6838 134.073 36.7716 133.615 36.7716H128.879C128.414 36.7716 128.088 36.6838 127.899 36.5081C127.705 36.3324 127.607 36.0156 127.607 35.5576V16.3039C127.607 15.9338 127.686 15.6483 127.843 15.4476C128.163 15.021 128.549 14.585 129.001 14.1395C129.453 13.6941 130.009 13.2205 130.668 12.7186C130.793 12.6245 130.916 12.5617 131.035 12.5304C131.16 12.499 131.267 12.4833 131.355 12.4833C131.569 12.4833 131.785 12.5617 132.005 12.7186C133.273 13.7161 134.161 14.5661 134.67 15.2688C134.808 15.4507 134.877 15.664 134.877 15.9087ZM153.653 15.9087V17.612H153.747C154.896 14.425 156.964 12.8315 159.953 12.8315C160.335 12.8315 160.649 12.8503 160.894 12.888C161.139 12.9256 161.309 12.9601 161.403 12.9915C161.635 13.0668 161.751 13.2424 161.751 13.5185V19.0612C161.751 19.5317 161.475 19.6603 160.922 19.447C160.734 19.3717 160.467 19.2933 160.122 19.2118C159.783 19.1239 159.306 19.08 158.691 19.08C157.109 19.08 155.875 19.6572 154.99 20.8115C154.099 21.9721 153.653 23.5468 153.653 25.5355V35.5576C153.653 36.0156 153.559 36.3324 153.371 36.5081C153.176 36.6838 152.849 36.7716 152.391 36.7716H147.655C147.197 36.7716 146.87 36.6838 146.675 36.5081C146.487 36.3324 146.393 36.0156 146.393 35.5576V16.3039C146.393 15.9338 146.468 15.6483 146.619 15.4476C146.939 15.021 147.325 14.585 147.777 14.1395C148.229 13.6941 148.785 13.2205 149.444 12.7186C149.569 12.6245 149.692 12.5617 149.811 12.5304C149.937 12.499 150.047 12.4833 150.141 12.4833C150.354 12.4833 150.568 12.5617 150.781 12.7186C152.055 13.7161 152.944 14.5661 153.446 15.2688C153.584 15.4507 153.653 15.664 153.653 15.9087ZM176.714 37.3456C174.121 37.3456 171.867 36.9284 169.953 36.094C168.038 35.2596 166.55 33.961 165.489 32.1981C164.435 30.4352 163.907 28.1611 163.907 25.3756C163.907 21.1973 164.981 18.0354 167.128 15.8899C169.268 13.7443 172.118 12.6715 175.678 12.6715C177.988 12.6715 179.947 13.0856 181.554 13.9137C183.154 14.7418 184.372 15.8836 185.207 17.3391C186.042 18.7946 186.46 20.4539 186.46 22.3172C186.46 24.1428 185.992 25.4164 185.057 26.1378C184.121 26.853 182.756 27.2106 180.96 27.2106H171.102C171.227 28.7916 171.805 29.9961 172.834 30.8242C173.87 31.6523 175.276 32.0664 177.053 32.0664C178.465 32.0664 179.595 31.8531 180.443 31.4265C181.296 31.0061 181.893 30.6736 182.232 30.429C182.52 30.2157 182.85 30.1153 183.22 30.1278C183.509 30.1278 183.927 30.1874 184.473 30.3066C185.013 30.4196 185.552 30.6297 186.092 30.9371C186.475 31.1379 186.667 31.4139 186.667 31.7652C186.667 31.966 186.629 32.2483 186.554 32.6122C186.504 32.8255 186.425 33.136 186.318 33.5438C186.212 33.9516 186.074 34.3311 185.904 34.6825C185.816 34.8519 185.672 35.0118 185.471 35.1624C185.163 35.3757 184.667 35.658 183.983 36.0093C183.305 36.3669 182.376 36.6775 181.196 36.941C180.016 37.2107 178.522 37.3456 176.714 37.3456ZM171.054 22.5054H178.55C179.335 22.5054 179.727 22.1447 179.727 21.4232C179.727 20.3379 179.385 19.4219 178.701 18.6754C178.016 17.9351 176.993 17.5649 175.631 17.5649C174.143 17.5649 173.051 18.0386 172.354 18.9859C171.657 19.9395 171.224 21.1127 171.054 22.5054ZM214.276 22.1384V35.5576C214.276 36.0156 214.178 36.3324 213.984 36.5081C213.795 36.6838 213.469 36.7716 213.004 36.7716H208.268C207.81 36.7716 207.486 36.6838 207.298 36.5081C207.103 36.3324 207.006 36.0156 207.006 35.5576V23.3335C207.006 21.6647 206.655 20.4477 205.951 19.6823C205.248 18.9169 204.291 18.5342 203.079 18.5342C201.868 18.5342 200.936 18.7946 200.283 19.3153C199.63 19.836 199.128 20.4916 198.776 21.282V35.5576C198.776 36.0156 198.682 36.3324 198.494 36.5081C198.299 36.6838 197.973 36.7716 197.514 36.7716H192.778C192.32 36.7716 191.993 36.6838 191.799 36.5081C191.61 36.3324 191.516 36.0156 191.516 35.5576V16.3039C191.516 15.9338 191.592 15.6483 191.742 15.4476C192.062 15.021 192.448 14.585 192.9 14.1395C193.352 13.6941 193.908 13.2205 194.567 12.7186C194.768 12.5617 194.959 12.4833 195.141 12.4833C195.311 12.4833 195.502 12.5617 195.716 12.7186C196.362 13.2205 196.915 13.7035 197.373 14.1678C197.838 14.6257 198.246 15.0994 198.597 15.5887H198.71C198.968 15.25 199.357 14.8547 199.878 14.403C200.399 13.9513 201.133 13.5498 202.081 13.1985C203.023 12.8472 204.228 12.6715 205.697 12.6715C207.141 12.6715 208.513 12.9632 209.812 13.5467C211.118 14.1301 212.188 15.1088 213.023 16.4827C213.858 17.8629 214.276 19.7481 214.276 22.1384ZM229.784 37.3456C224.668 37.3456 222.11 34.6887 222.11 29.375V18.6001H219.511C219.053 18.6001 218.736 18.5028 218.56 18.3084C218.384 18.1201 218.296 17.7971 218.296 17.3391V14.5065C218.296 14.0486 218.384 13.7255 218.56 13.5373C218.736 13.3428 219.053 13.2456 219.511 13.2456H222.11V9.54726C222.11 9.17712 222.185 8.8948 222.336 8.70032C222.983 7.85339 223.927 6.94057 225.17 5.96189C225.384 5.81132 225.575 5.73604 225.745 5.73604C225.927 5.73604 226.109 5.81132 226.291 5.96189C226.95 6.47005 227.506 6.94371 227.957 7.38286C228.409 7.82829 228.799 8.26744 229.125 8.70032C229.276 8.8948 229.351 9.17712 229.351 9.54726V13.2456H233.419C233.877 13.2456 234.194 13.3428 234.37 13.5373C234.552 13.7255 234.643 14.0486 234.643 14.5065V17.3391C234.643 17.7971 234.552 18.1201 234.37 18.3084C234.194 18.5028 233.877 18.6001 233.419 18.6001H229.351V28.114C229.351 30.5607 230.239 31.7841 232.016 31.7841C232.292 31.7841 232.546 31.759 232.779 31.7088C233.005 31.6523 233.202 31.5927 233.372 31.53C233.698 31.4108 233.924 31.3669 234.05 31.3982C234.182 31.4296 234.301 31.5959 234.408 31.897L235.745 35.4635C235.883 35.8462 235.789 36.1223 235.462 36.2917C235.236 36.3983 234.681 36.5991 233.796 36.8939C232.917 37.195 231.58 37.3456 229.784 37.3456Z" fill="#F6FFCE"/>
</g>
<g clip-path="url(#clip8_496_298)">
<path d="M280.435 21.175C279.792 21.1753 279.176 21.4305 278.722 21.8845C278.268 22.3385 278.012 22.9542 278.012 23.5963V32.8801H256.758V23.5963C256.758 22.9541 256.503 22.3383 256.048 21.8842C255.594 21.4301 254.978 21.175 254.335 21.175C253.693 21.175 253.076 21.4301 252.622 21.8842C252.168 22.3383 251.912 22.9541 251.912 23.5963V35.3019C251.913 35.9439 252.168 36.5596 252.622 37.0136C253.077 37.4677 253.693 37.7228 254.335 37.7231H280.435C281.078 37.7228 281.694 37.4677 282.148 37.0136C282.603 36.5596 282.858 35.9439 282.858 35.3019V23.5963C282.858 22.9541 282.602 22.3383 282.148 21.8843C281.694 21.4303 281.077 21.1752 280.435 21.175Z" fill="#F6FFCE"/>
<path d="M289.093 15.2183L268.793 0.727583C268.382 0.434471 267.89 0.276917 267.385 0.276917C266.88 0.276917 266.388 0.434471 265.977 0.727583L245.677 15.2183C245.418 15.4031 245.198 15.637 245.03 15.9068C244.861 16.1765 244.747 16.4768 244.695 16.7904C244.643 17.104 244.653 17.4249 244.725 17.7347C244.796 18.0444 244.928 18.3371 245.113 18.5958C245.298 18.8546 245.532 19.0744 245.802 19.2427C246.072 19.4111 246.373 19.5246 246.686 19.5769C247 19.6292 247.321 19.6192 247.631 19.5475C247.941 19.4758 248.234 19.3438 248.493 19.159L267.385 5.67354L286.277 19.159C286.687 19.4525 287.179 19.6103 287.683 19.6101C288.197 19.6106 288.697 19.4479 289.112 19.1457C289.527 18.8434 289.835 18.4172 289.992 17.9285C290.149 17.4398 290.147 16.914 289.985 16.4268C289.823 15.9397 289.511 15.5165 289.093 15.2183Z" fill="#F6FFCE"/>
</g>
</g>
</g>
</g>
</g>
</g>
</g>
</g>
<defs>
<clipPath id="clip0_496_298">
<rect width="291" height="38" fill="white"/>
</clipPath>
<clipPath id="clip1_496_298">
<rect width="289.216" height="37.4462" fill="white" transform="translate(0.891846 0.276917)"/>
</clipPath>
<clipPath id="clip2_496_298">
<rect width="289.216" height="37.4462" fill="white" transform="translate(0.891846 0.276917)"/>
</clipPath>
<clipPath id="clip3_496_298">
<rect width="289.216" height="37.4462" fill="white" transform="translate(0.891846 0.276917)"/>
</clipPath>
<clipPath id="clip4_496_298">
<rect width="289.216" height="37.4462" fill="white" transform="translate(0.891846 0.276917)"/>
</clipPath>
<clipPath id="clip5_496_298">
<rect width="289.216" height="37.4462" fill="white" transform="translate(0.891846 0.276917)"/>
</clipPath>
<clipPath id="clip6_496_298">
<rect width="289.216" height="37.4462" fill="white" transform="translate(0.891846 0.276917)"/>
</clipPath>
<clipPath id="clip7_496_298">
<rect width="234.924" height="36.6912" fill="white" transform="translate(0.891846 0.654419)"/>
</clipPath>
<clipPath id="clip8_496_298">
<rect width="45.4463" height="37.4462" fill="white" transform="translate(244.662 0.276917)"/>
</clipPath>
</defs>
</svg>
