<svg width="30" height="37" viewBox="0 0 30 37" fill="none" xmlns="http://www.w3.org/2000/svg">
<path d="M30 26.903C30 32.4685 26.3327 36.9916 21.82 36.9916V34.4694C25.2284 34.4694 27.955 31.1066 27.955 26.903H30ZM0.00681655 10.0886C0.00681655 4.52306 3.67417 0 8.18678 0V2.52215C4.77846 2.52215 2.05181 5.88503 2.05181 10.0886H0.00681655ZM9.5501 5.58237L3.29243 13.317C-1.09748 18.7312 -1.09748 27.5251 3.29243 32.9393C7.68234 38.3536 14.8125 38.3536 19.2025 32.9393L28.8412 21.018C29.5092 20.2277 29.5092 18.8993 28.8412 18.0754C28.6829 17.8797 28.4948 17.7244 28.2878 17.6185C28.0807 17.5125 27.8588 17.458 27.6346 17.458C27.4105 17.458 27.1885 17.5125 26.9815 17.6185C26.7744 17.7244 26.5864 17.8797 26.4281 18.0754L20.4022 25.5074L19.4342 24.3136L28.3504 13.317C29.0184 12.4931 29.0184 11.1647 28.3504 10.3408C27.6823 9.51693 26.5917 9.51693 25.91 10.3408L17.9891 20.1772L17.0484 18.9498L26.4145 7.36469C27.0825 6.54079 27.0825 5.21245 26.4145 4.38855C25.7464 3.56464 24.6694 3.56464 24.0014 4.38855L14.608 15.9736L13.6401 14.7966L21.1384 5.58237C21.82 4.75846 21.82 3.43013 21.1384 2.60623C20.4567 1.78232 19.3933 1.78232 18.7253 2.60623L8.33674 15.4188C9.151 16.7124 9.55457 18.3281 9.47174 19.9626C9.38891 21.5971 8.82537 23.1382 7.88684 24.2967L6.91888 23.1029C7.6848 22.1571 8.11501 20.875 8.11501 19.5383C8.11501 18.2015 7.6848 16.9195 6.91888 15.9736L6.44172 15.3851L11.9905 8.54169C12.6585 7.71779 12.6585 6.38946 11.9905 5.56555C11.3088 4.75846 10.2318 4.75846 9.5501 5.58237Z" fill="#EC7C64"/>
</svg>
